<svg width="82" height="82" viewBox="0 0 82 82" fill="none" xmlns="http://www.w3.org/2000/svg">
<rect width="82" height="82" rx="17" fill="#383838"/>
<path d="M1 17C1 8.16344 8.16344 1 17 1H33H41H49H65C73.8366 1 81 8.16344 81 17V33V41V49V65C81 73.8366 73.8366 81 65 81H49H41H33H17C8.16344 81 1 73.8366 1 65V49V41V33V17Z" fill="#383838"/>
<path d="M33 1H17C8.16344 1 1 8.16344 1 17V33M33 1V81M33 1H41M33 81H17C8.16344 81 1 73.8366 1 65V49M33 81H41M41 1V81M41 1H49M41 81H49M49 1H65C73.8366 1 81 8.16344 81 17V33M49 1V81M49 81H65C73.8366 81 81 73.8366 81 65V49M1 33H81M1 33V41M81 33V41M81 41H1M81 41V49M1 41V49M81 49H1M9 3V9M9 79V73M3 9H9M79 9H73M79 73H73M3 73H9M9 9L73 73M9 9H73M9 9V73M73 73H9M73 3V9M73 79V9M73 9L9 73" stroke="#AAD4FF" stroke-width="0.1"/>
<rect x="33" y="33" width="16" height="16" rx="8" stroke="#AAD4FF" stroke-width="0.1"/>
<rect x="9" y="9" width="64" height="64" rx="32" stroke="#AAD4FF" stroke-width="0.1"/>
</svg>
